<?xml version="1.0" encoding="UTF-8" standalone="no"?><svg xmlns="http://www.w3.org/2000/svg" xmlns:xlink="http://www.w3.org/1999/xlink" contentScriptType="application/ecmascript" contentStyleType="text/css" height="256px" preserveAspectRatio="none" style="width:1696px;height:256px;" version="1.1" viewBox="0 0 1696 256" width="1696px" zoomAndPan="magnify"><defs><filter height="300%" id="f1nfikejf6k3l0" width="300%" x="-1" y="-1"><feGaussianBlur result="blurOut" stdDeviation="2.0"/><feColorMatrix in="blurOut" result="blurOut2" type="matrix" values="0 0 0 0 0 0 0 0 0 0 0 0 0 0 0 0 0 0 .4 0"/><feOffset dx="4.0" dy="4.0" in="blurOut2" result="blurOut3"/><feBlend in="SourceGraphic" in2="blurOut3" mode="normal"/></filter></defs><g><rect fill="#FFFFFF" filter="url(#f1nfikejf6k3l0)" height="93" style="stroke: #000000; stroke-width: 1.5;" width="1663" x="22" y="152"/><ellipse cx="179.1669" cy="198.5334" fill="#FEFECE" filter="url(#f1nfikejf6k3l0)" rx="140.6669" ry="30.5334" style="stroke: #A80036; stroke-width: 1.5;"/><text fill="#000000" font-family="sans-serif" font-size="14" lengthAdjust="spacingAndGlyphs" textLength="263" x="47.6669" y="203.1818">Visualiser Historique des Modifications</text><ellipse cx="731.2278" cy="198.3456" fill="#FEFECE" filter="url(#f1nfikejf6k3l0)" rx="129.7278" ry="28.3456" style="stroke: #A80036; stroke-width: 1.5;"/><text fill="#000000" font-family="sans-serif" font-size="14" lengthAdjust="spacingAndGlyphs" textLength="240" x="611.2278" y="202.994">Visualiser Fichiers les Plus Modifiés</text><ellipse cx="1035.2348" cy="198.747" fill="#FEFECE" filter="url(#f1nfikejf6k3l0)" rx="139.2348" ry="30.247" style="stroke: #A80036; stroke-width: 1.5;"/><text fill="#000000" font-family="sans-serif" font-size="14" lengthAdjust="spacingAndGlyphs" textLength="260" x="905.2348" y="203.3954">Visualiser Changements de la Version</text><ellipse cx="1359.1608" cy="198.5322" fill="#FEFECE" filter="url(#f1nfikejf6k3l0)" rx="103.1608" ry="23.0322" style="stroke: #A80036; stroke-width: 1.5;"/><text fill="#000000" font-family="sans-serif" font-size="14" lengthAdjust="spacingAndGlyphs" textLength="183" x="1267.6608" y="203.1806">Charger Répertoire GitHub</text><ellipse cx="483.7712" cy="198.3542" fill="#FEFECE" filter="url(#f1nfikejf6k3l0)" rx="82.2712" ry="18.8542" style="stroke: #A80036; stroke-width: 1.5;"/><text fill="#000000" font-family="sans-serif" font-size="14" lengthAdjust="spacingAndGlyphs" textLength="136" x="415.7712" y="203.0027">Sélectionner Fichier</text><ellipse cx="1582.7932" cy="198.4586" fill="#FEFECE" filter="url(#f1nfikejf6k3l0)" rx="85.2932" ry="19.4586" style="stroke: #A80036; stroke-width: 1.5;"/><text fill="#000000" font-family="sans-serif" font-size="14" lengthAdjust="spacingAndGlyphs" textLength="143" x="1511.2932" y="203.1071">Sélectionner Version</text><!--MD5=[4166c2533998e538f16711cc7763c23c]
entity Dev--><ellipse cx="179" cy="17.5" fill="#FEFECE" filter="url(#f1nfikejf6k3l0)" rx="8" ry="8" style="stroke: #A80036; stroke-width: 1.5;"/><path d="M179,25.5 L179,52.5 M166,33.5 L192,33.5 M179,52.5 L166,67.5 M179,52.5 L192,67.5 " fill="none" filter="url(#f1nfikejf6k3l0)" style="stroke: #A80036; stroke-width: 1.5;"/><text fill="#000000" font-family="sans-serif" font-size="14" lengthAdjust="spacingAndGlyphs" textLength="89" x="134.5" y="85.9951">Développeur</text><!--MD5=[1035515eb14b5228f153ae78bdf69e99]
entity PM--><ellipse cx="731" cy="17.5" fill="#FEFECE" filter="url(#f1nfikejf6k3l0)" rx="8" ry="8" style="stroke: #A80036; stroke-width: 1.5;"/><path d="M731,25.5 L731,52.5 M718,33.5 L744,33.5 M731,52.5 L718,67.5 M731,52.5 L744,67.5 " fill="none" filter="url(#f1nfikejf6k3l0)" style="stroke: #A80036; stroke-width: 1.5;"/><text fill="#000000" font-family="sans-serif" font-size="14" lengthAdjust="spacingAndGlyphs" textLength="154" x="654" y="85.9951">Gestionnaire de Projet</text><!--MD5=[0ba5ee7700168656dc1b457c6fe9fdac]
entity Client--><ellipse cx="1035" cy="17.5" fill="#FEFECE" filter="url(#f1nfikejf6k3l0)" rx="8" ry="8" style="stroke: #A80036; stroke-width: 1.5;"/><path d="M1035,25.5 L1035,52.5 M1022,33.5 L1048,33.5 M1035,52.5 L1022,67.5 M1035,52.5 L1048,67.5 " fill="none" filter="url(#f1nfikejf6k3l0)" style="stroke: #A80036; stroke-width: 1.5;"/><text fill="#000000" font-family="sans-serif" font-size="14" lengthAdjust="spacingAndGlyphs" textLength="39" x="1015.5" y="85.9951">Client</text><!--MD5=[aa302ae7ecd906b61ddaf3999b9d4e30]
link Dev to Visualiser Historique des Modifications--><path d="M179,89.16 C179,111.99 179,140.42 179,162.43 " fill="none" id="Dev-&gt;Visualiser Historique des Modifications" style="stroke: #A80036; stroke-width: 1.0;"/><polygon fill="#A80036" points="179,167.59,183,158.59,179,162.59,175,158.59,179,167.59" style="stroke: #A80036; stroke-width: 1.0;"/><!--MD5=[0908c1e62530d4db607e72d13fc5e317]
link PM to Visualiser Fichiers les Plus Modifiés--><path d="M731,89.16 C731,112.78 731,142.4 731,164.7 " fill="none" id="PM-&gt;Visualiser Fichiers les Plus Modifiés" style="stroke: #A80036; stroke-width: 1.0;"/><polygon fill="#A80036" points="731,169.91,735,160.91,731,164.91,727,160.91,731,169.91" style="stroke: #A80036; stroke-width: 1.0;"/><!--MD5=[fd71534a88fc8f77371dba070cc48ff3]
link Client to Visualiser Changements de la Version--><path d="M1035,89.16 C1035,112.15 1035,140.82 1035,162.89 " fill="none" id="Client-&gt;Visualiser Changements de la Version" style="stroke: #A80036; stroke-width: 1.0;"/><polygon fill="#A80036" points="1035,168.06,1039,159.06,1035,163.06,1031,159.06,1035,168.06" style="stroke: #A80036; stroke-width: 1.0;"/><!--MD5=[aac9d8baea3f9f48132548a206c54726]
link Visualiser Historique des Modifications to Charger Répertoire GitHub--><path d="M257.96,173.06 C295.69,162.06 341.75,150.28 384,144 C561.61,117.61 1015.25,112.39 1192,144 C1230.33,150.85 1271.96,164.43 1304.07,176.31 " fill="none" id="Visualiser Historique des Modifications-&gt;Charger Répertoire GitHub" style="stroke: #A80036; stroke-width: 1.0; stroke-dasharray: 7.0,7.0;"/><polygon fill="#A80036" points="1309.14,178.2,1302.0991,171.3134,1304.4537,176.4569,1299.3101,178.8115,1309.14,178.2" style="stroke: #A80036; stroke-width: 1.0;"/><text fill="#000000" font-family="sans-serif" font-size="13" lengthAdjust="spacingAndGlyphs" textLength="45" x="782.5" y="132.0669">include</text><!--MD5=[8516af884878e9da92b4cdbb466fba2b]
link Visualiser Historique des Modifications to Sélectionner Fichier--><path d="M319.89,198.5 C345.98,198.5 372.52,198.5 396.44,198.5 " fill="none" id="Visualiser Historique des Modifications-&gt;Sélectionner Fichier" style="stroke: #A80036; stroke-width: 1.0; stroke-dasharray: 7.0,7.0;"/><polygon fill="#A80036" points="401.5,198.5,392.5,194.5,396.5,198.5,392.5,202.5,401.5,198.5" style="stroke: #A80036; stroke-width: 1.0;"/><text fill="#000000" font-family="sans-serif" font-size="13" lengthAdjust="spacingAndGlyphs" textLength="45" x="338" y="191.5669">include</text><!--MD5=[2b2fa700005b766560c7fff39f560215]
link Visualiser Fichiers les Plus Modifiés to Charger Répertoire GitHub--><path d="M784.33,172.53 C819.74,156.76 867.77,138.16 912.5,130 C974.02,118.78 1004.15,108.3 1192,144 C1230.11,151.24 1271.58,164.74 1303.66,176.49 " fill="none" id="Visualiser Fichiers les Plus Modifiés-&gt;Charger Répertoire GitHub" style="stroke: #A80036; stroke-width: 1.0; stroke-dasharray: 7.0,7.0;"/><polygon fill="#A80036" points="1308.72,178.36,1301.6791,171.4734,1304.0337,176.6169,1298.8901,178.9715,1308.72,178.36" style="stroke: #A80036; stroke-width: 1.0;"/><text fill="#000000" font-family="sans-serif" font-size="13" lengthAdjust="spacingAndGlyphs" textLength="45" x="913.5" y="132.0669">include</text><!--MD5=[7161a42d78e8c654a27593d9b40a21ae]
link Visualiser Changements de la Version to Charger Répertoire GitHub--><path d="M1174.29,198.5 C1199.75,198.5 1225.97,198.5 1250.37,198.5 " fill="none" id="Visualiser Changements de la Version-&gt;Charger Répertoire GitHub" style="stroke: #A80036; stroke-width: 1.0; stroke-dasharray: 7.0,7.0;"/><polygon fill="#A80036" points="1255.55,198.5,1246.55,194.5,1250.55,198.5,1246.55,202.5,1255.55,198.5" style="stroke: #A80036; stroke-width: 1.0;"/><text fill="#000000" font-family="sans-serif" font-size="13" lengthAdjust="spacingAndGlyphs" textLength="45" x="1192.5" y="191.5669">include</text><!--MD5=[365065a989aa3b7213c3c05c3efcda7d]
link Visualiser Changements de la Version to Sélectionner Version--><path d="M1104.85,172.54 C1169.81,151.09 1269.66,124.9 1358.5,130 C1412.77,133.12 1428.08,127.9 1480,144 C1504.97,151.74 1530.98,165.56 1550.61,177.34 " fill="none" id="Visualiser Changements de la Version-&gt;Sélectionner Version" style="stroke: #A80036; stroke-width: 1.0; stroke-dasharray: 7.0,7.0;"/><polygon fill="#A80036" points="1554.95,179.97,1549.33,171.882,1550.6752,177.3766,1545.1806,178.7217,1554.95,179.97" style="stroke: #A80036; stroke-width: 1.0;"/><text fill="#000000" font-family="sans-serif" font-size="13" lengthAdjust="spacingAndGlyphs" textLength="45" x="1312.5" y="132.0669">include</text><!--MD5=[3892df15bd7ad8b1fe855bbbb1ab824c]
@startuml PFE_use_case
actor "Développeur" as Dev
actor "Gestionnaire de Projet" as PM
actor "Client" as Client

rectangle {
  Dev - -> (Visualiser Historique des Modifications)
  PM - -> (Visualiser Fichiers les Plus Modifiés)
  Client - -> (Visualiser Changements de la Version)

  (Visualiser Historique des Modifications) .> (Charger Répertoire GitHub) : include
  (Visualiser Historique des Modifications) .> (Sélectionner Fichier) : include

  (Visualiser Fichiers les Plus Modifiés) .> (Charger Répertoire GitHub) : include

  (Visualiser Changements de la Version) .> (Charger Répertoire GitHub) : include
  (Visualiser Changements de la Version) .> (Sélectionner Version) : include
}
@enduml

PlantUML version 1.2020.02(Sun Mar 01 05:22:07 EST 2020)
(GPL source distribution)
Java Runtime: OpenJDK Runtime Environment
JVM: OpenJDK 64-Bit Server VM
Java Version: 11.0.23+9-post-Ubuntu-1ubuntu122.04.1
Operating System: Linux
Default Encoding: UTF-8
Language: en
Country: null
--></g></svg>